<svg width="33" height="29" viewBox="0 0 33 29" fill="none" xmlns="http://www.w3.org/2000/svg">
<g clip-path="url(#clip0_165_271)">
<path d="M30.0209 0.286694L4.06352 2.01701C3.58008 2.05036 2.0625 2.93302 1.85469 4.84763L0.118908 20.8858C0.0286732 21.7225 0.0975795 23.6771 1.73438 23.9817L26.994 28.6744C27.1537 28.7039 27.3161 28.7187 27.4763 28.7187C28.0872 28.7187 30.2878 28.2276 30.5164 26.0975L32.8806 4.25974C33.1026 2.21826 31.8623 0.161459 30.0209 0.286694ZM4.13242 2.99536L30.0871 1.26451C30.4138 1.23958 30.7398 1.32009 31.0174 1.49419L13.4834 17.3782L3.64571 3.23271C3.80922 3.08997 3.97875 3.00576 4.13242 2.99536ZM1.10766 20.9892L2.84344 4.95154C2.87516 4.66169 2.94789 4.37458 3.05453 4.11208L9.45625 13.1776L1.11914 21.7444C1.08417 21.4941 1.08031 21.2404 1.10766 20.9892ZM27.1783 27.7103L1.91867 23.0181C1.77977 22.9924 1.64196 22.8983 1.51891 22.7507L9.50821 14.5404L10.0256 14.0083L13.286 18.8602L18.3709 14.4158L20.0088 16.6L28.2267 27.5566C27.9038 27.7224 27.5351 27.7764 27.1783 27.7103ZM31.8924 3.66529L29.5282 25.5031C29.4708 26.0347 29.2783 26.5268 28.9835 26.9151L19.1119 13.754L31.6676 2.23685C31.8683 2.64536 31.9487 3.14302 31.8924 3.66529Z" fill="black"/>
</g>
<defs>
<clipPath id="clip0_165_271">
<rect width="33" height="29" fill="white"/>
</clipPath>
</defs>
</svg>
