<svg width="18" height="16" viewBox="0 0 18 16" fill="none" xmlns="http://www.w3.org/2000/svg">
<g clip-path="url(#clip0_122_10)">
<path d="M5.768 0.75H12.232C13.045 0.75 13.701 0.75 14.232 0.793C14.778 0.838 15.258 0.933 15.702 1.159C16.4081 1.51837 16.9822 2.09214 17.342 2.798C17.568 3.242 17.662 3.722 17.707 4.268C17.75 4.799 17.75 5.455 17.75 6.268V9.732C17.75 10.545 17.75 11.201 17.707 11.732C17.662 12.278 17.567 12.758 17.341 13.202C16.9816 13.9081 16.4079 14.4822 15.702 14.842C15.258 15.068 14.778 15.162 14.232 15.207C13.701 15.25 13.045 15.25 12.232 15.25H5.768C4.955 15.25 4.299 15.25 3.768 15.207C3.222 15.162 2.742 15.067 2.298 14.841C1.59192 14.4816 1.0178 13.9079 0.658 13.202C0.432 12.758 0.338 12.278 0.293 11.732C0.25 11.201 0.25 10.545 0.25 9.732V6.268C0.25 5.455 0.25 4.799 0.293 4.268C0.338 3.722 0.433 3.242 0.659 2.798C1.01837 2.09192 1.59214 1.5178 2.298 1.158C2.742 0.932 3.222 0.838 3.768 0.793C4.299 0.75 4.955 0.75 5.768 0.75ZM3.89 2.288C3.436 2.325 3.175 2.395 2.978 2.495C2.678 2.648 2.418 2.865 2.215 3.128L7.395 7.617C7.775 7.947 8.028 8.166 8.238 8.321C8.44 8.471 8.556 8.526 8.647 8.553C8.877 8.62 9.121 8.62 9.351 8.553C9.441 8.526 9.558 8.471 9.76 8.321C9.97 8.166 10.223 7.946 10.604 7.617L15.783 3.128C15.5792 2.86301 15.3189 2.64677 15.021 2.495C14.823 2.395 14.562 2.325 14.108 2.288C13.646 2.251 13.051 2.25 12.199 2.25H5.8C4.948 2.25 4.353 2.25 3.89 2.288ZM1.75 6.3V9.7C1.75 10.553 1.75 11.147 1.788 11.61C1.825 12.063 1.895 12.324 1.995 12.522C2.04167 12.6133 2.09467 12.7013 2.154 12.786L4.97 9.97C5.11217 9.83752 5.30022 9.7654 5.49452 9.76882C5.68882 9.77225 5.87421 9.85097 6.01162 9.98838C6.14903 10.1258 6.22775 10.3112 6.23118 10.5055C6.2346 10.6998 6.16248 10.8878 6.03 11.03L3.413 13.648C3.543 13.6747 3.70233 13.696 3.891 13.712C4.353 13.749 4.948 13.75 5.8 13.75H12.2C13.052 13.75 13.647 13.75 14.11 13.712C14.2705 13.7003 14.4301 13.6789 14.588 13.648L11.97 11.03C11.8963 10.9613 11.8372 10.8785 11.7962 10.7865C11.7552 10.6945 11.7332 10.5952 11.7314 10.4945C11.7296 10.3938 11.7482 10.2938 11.7859 10.2004C11.8236 10.107 11.8797 10.0222 11.951 9.95096C12.0222 9.87974 12.107 9.8236 12.2004 9.78588C12.2938 9.74816 12.3938 9.72963 12.4945 9.73141C12.5952 9.73318 12.6945 9.75523 12.7865 9.79622C12.8785 9.83721 12.9613 9.89631 13.03 9.97L15.846 12.786C15.9047 12.7013 15.9577 12.613 16.005 12.521C16.105 12.324 16.175 12.063 16.212 11.609C16.249 11.147 16.25 10.553 16.25 9.7V6.3C16.25 5.64 16.25 5.134 16.232 4.725L11.566 8.769C11.212 9.075 10.916 9.333 10.654 9.526C10.38 9.729 10.102 9.896 9.774 9.992C9.26833 10.1404 8.73067 10.1404 8.225 9.992C7.898 9.896 7.62 9.729 7.345 9.526C7.03297 9.28431 6.72945 9.03182 6.435 8.769L1.767 4.725C1.749 5.135 1.75 5.64 1.75 6.3Z" fill="black"/>
</g>
<defs>
<clipPath id="clip0_122_10">
<rect width="18" height="16" fill="white"/>
</clipPath>
</defs>
</svg>
