<svg width="31" height="31" viewBox="0 0 31 31" fill="none" xmlns="http://www.w3.org/2000/svg">
<path d="M9.37502 0.916504H21.625C26.2917 0.916504 30.0834 4.70817 30.0834 9.37484V21.6248C30.0834 23.8681 29.1922 26.0195 27.606 27.6058C26.0197 29.192 23.8683 30.0832 21.625 30.0832H9.37502C4.70835 30.0832 0.916687 26.2915 0.916687 21.6248V9.37484C0.916687 7.13155 1.80783 4.98014 3.39408 3.39389C4.98032 1.80765 7.13173 0.916504 9.37502 0.916504ZM9.08336 3.83317C7.69097 3.83317 6.35561 4.3863 5.37104 5.37086C4.38648 6.35543 3.83335 7.69079 3.83335 9.08317V21.9165C3.83335 24.8186 6.18127 27.1665 9.08336 27.1665H21.9167C23.3091 27.1665 24.6444 26.6134 25.629 25.6288C26.6136 24.6443 27.1667 23.3089 27.1667 21.9165V9.08317C27.1667 6.18109 24.8188 3.83317 21.9167 3.83317H9.08336ZM23.1563 6.02067C23.6397 6.02067 24.1034 6.21273 24.4453 6.55459C24.7871 6.89646 24.9792 7.36012 24.9792 7.84359C24.9792 8.32706 24.7871 8.79072 24.4453 9.13259C24.1034 9.47445 23.6397 9.66651 23.1563 9.66651C22.6728 9.66651 22.2091 9.47445 21.8673 9.13259C21.5254 8.79072 21.3334 8.32706 21.3334 7.84359C21.3334 7.36012 21.5254 6.89646 21.8673 6.55459C22.2091 6.21273 22.6728 6.02067 23.1563 6.02067ZM15.5 8.20817C17.4339 8.20817 19.2886 8.9764 20.656 10.3439C22.0235 11.7113 22.7917 13.566 22.7917 15.4998C22.7917 17.4337 22.0235 19.2884 20.656 20.6558C19.2886 22.0233 17.4339 22.7915 15.5 22.7915C13.5662 22.7915 11.7115 22.0233 10.344 20.6558C8.97658 19.2884 8.20836 17.4337 8.20836 15.4998C8.20836 13.566 8.97658 11.7113 10.344 10.3439C11.7115 8.9764 13.5662 8.20817 15.5 8.20817ZM15.5 11.1248C14.3397 11.1248 13.2269 11.5858 12.4064 12.4062C11.586 13.2267 11.125 14.3395 11.125 15.4998C11.125 16.6602 11.586 17.773 12.4064 18.5934C13.2269 19.4139 14.3397 19.8748 15.5 19.8748C16.6603 19.8748 17.7731 19.4139 18.5936 18.5934C19.4141 17.773 19.875 16.6602 19.875 15.4998C19.875 14.3395 19.4141 13.2267 18.5936 12.4062C17.7731 11.5858 16.6603 11.1248 15.5 11.1248Z" fill="black"/>
</svg>
