<svg width="27" height="27" viewBox="0 0 27 27" fill="none" xmlns="http://www.w3.org/2000/svg">
<path d="M23.7083 0.375C24.4819 0.375 25.2237 0.682291 25.7707 1.22927C26.3177 1.77625 26.625 2.51812 26.625 3.29167V23.7083C26.625 24.4819 26.3177 25.2237 25.7707 25.7707C25.2237 26.3177 24.4819 26.625 23.7083 26.625H3.29167C2.51812 26.625 1.77625 26.3177 1.22927 25.7707C0.682291 25.2237 0.375 24.4819 0.375 23.7083V3.29167C0.375 2.51812 0.682291 1.77625 1.22927 1.22927C1.77625 0.682291 2.51812 0.375 3.29167 0.375H23.7083ZM22.9792 22.9792V15.25C22.9792 13.9891 22.4783 12.7799 21.5867 11.8883C20.6951 10.9967 19.4859 10.4958 18.225 10.4958C16.9854 10.4958 15.5417 11.2542 14.8417 12.3917V10.7729H10.7729V22.9792H14.8417V15.7896C14.8417 14.6667 15.7458 13.7479 16.8688 13.7479C17.4102 13.7479 17.9295 13.963 18.3124 14.3459C18.6953 14.7288 18.9104 15.2481 18.9104 15.7896V22.9792H22.9792ZM6.03333 8.48333C6.68311 8.48333 7.30628 8.22521 7.76575 7.76575C8.22521 7.30628 8.48333 6.68311 8.48333 6.03333C8.48333 4.67708 7.38958 3.56875 6.03333 3.56875C5.37969 3.56875 4.75281 3.82841 4.29061 4.29061C3.82841 4.75281 3.56875 5.37969 3.56875 6.03333C3.56875 7.38958 4.67708 8.48333 6.03333 8.48333ZM8.06042 22.9792V10.7729H4.02083V22.9792H8.06042Z" fill="black"/>
</svg>
