<svg width="1199" height="379" viewBox="0 0 1199 379" fill="none" xmlns="http://www.w3.org/2000/svg">
<path d="M289.295 140.076C288.989 139.341 288.836 138.515 288.836 137.597C288.836 136.618 289.356 135.516 290.397 134.292C291.498 133.007 293.12 132.365 295.262 132.365H315.365C317.752 132.365 319.955 133.191 321.975 134.843C323.994 136.496 325.432 138.576 326.289 141.085L350.524 213.789L372.922 141.085C374.697 135.272 378.338 132.365 383.846 132.365H400.736C406.244 132.365 409.886 135.272 411.66 141.085L434.059 213.789L458.293 141.085C459.15 138.576 460.588 136.496 462.608 134.843C464.627 133.191 466.83 132.365 469.217 132.365H489.32C491.401 132.365 492.962 133.007 494.002 134.292C495.104 135.516 495.654 136.618 495.654 137.597C495.654 138.515 495.532 139.341 495.287 140.076L454.346 254.638C452.081 260.88 447.675 264.001 441.127 264.001H427.816C421.024 264.001 416.648 260.88 414.69 254.638L392.291 183.955L369.893 254.638C367.873 260.88 363.497 264.001 356.766 264.001H343.363C336.876 264.001 332.501 260.88 330.236 254.638L289.295 140.076Z" fill="#0466C8"/>
<path d="M510.709 255.189V140.902C510.709 138.515 511.566 136.496 513.279 134.843C514.993 133.191 517.043 132.365 519.43 132.365H625.272C627.658 132.365 629.678 133.221 631.33 134.935C633.044 136.649 633.901 138.699 633.901 141.085V149.714C633.901 152.101 633.044 154.151 631.33 155.865C629.678 157.517 627.658 158.343 625.272 158.343H545.317V185.056H614.164C616.551 185.056 618.57 185.913 620.223 187.626C621.936 189.279 622.793 191.298 622.793 193.685V202.314C622.793 204.701 621.936 206.751 620.223 208.464C618.57 210.117 616.551 210.943 614.164 210.943H545.317V238.023H625.088C627.414 238.023 629.402 238.849 631.055 240.501C632.707 242.154 633.533 244.173 633.533 246.56V255.373C633.533 257.759 632.677 259.809 630.963 261.523C629.249 263.175 627.199 264.001 624.813 264.001H519.43C517.043 264.001 514.993 263.175 513.279 261.523C511.566 259.809 510.709 257.698 510.709 255.189Z" fill="#0466C8"/>
<path d="M643.264 230.312C643.264 226.701 644.335 224.131 646.477 222.601C648.619 221.01 650.699 220.214 652.719 220.214H663.643C669.151 220.214 673.343 223.213 676.219 229.21C679.095 235.208 685.552 238.206 695.588 238.206L727.717 238.849C738.488 238.849 743.873 235.33 743.873 228.292C743.873 222.968 737.294 218.776 724.137 215.716C718.262 214.309 711.775 212.932 704.676 211.585C697.577 210.178 690.509 208.434 683.471 206.353C676.494 204.272 670.068 201.824 664.193 199.009C658.318 196.194 653.545 192.339 649.873 187.443C646.262 182.486 644.457 176.672 644.457 170.001C644.457 157.701 648.833 148.246 657.584 141.636C666.335 134.966 681.39 131.63 702.748 131.63L726.065 132.181C738.61 132.181 749.901 135.425 759.938 141.912C770.035 148.337 775.084 156.385 775.084 166.054C775.084 169.665 774.013 172.266 771.871 173.857C769.729 175.448 767.679 176.244 765.721 176.244H754.797C749.289 176.244 745.097 173.245 742.221 167.248C739.345 161.189 732.888 158.16 722.852 158.16L695.221 157.609C684.45 157.609 679.065 161.128 679.065 168.165C679.065 172.021 682.461 175.173 689.254 177.621C696.108 180.068 704.37 182.241 714.039 184.138C723.77 185.974 733.531 188.208 743.322 190.839C753.114 193.471 761.406 197.816 768.199 203.874C775.054 209.872 778.481 217.369 778.481 226.365C778.481 238.665 774.074 248.151 765.262 254.822C756.511 261.431 741.486 264.736 720.19 264.736L692.375 264.185C679.83 264.185 668.508 260.972 658.41 254.546C648.313 248.059 643.264 239.981 643.264 230.312Z" fill="#0D1B2A"/>
<path d="M643.264 230.312C643.264 226.701 644.335 224.131 646.477 222.601C648.619 221.01 650.699 220.214 652.719 220.214H663.643C669.151 220.214 673.343 223.213 676.219 229.21C679.095 235.208 685.552 238.206 695.588 238.206L727.717 238.849C738.488 238.849 743.873 235.33 743.873 228.292C743.873 222.968 737.294 218.776 724.137 215.716C718.262 214.309 711.775 212.932 704.676 211.585C697.577 210.178 690.509 208.434 683.471 206.353C676.494 204.272 670.068 201.824 664.193 199.009C658.318 196.194 653.545 192.339 649.873 187.443C646.262 182.486 644.457 176.672 644.457 170.001C644.457 157.701 648.833 148.246 657.584 141.636C666.335 134.966 681.39 131.63 702.748 131.63L726.065 132.181C738.61 132.181 749.901 135.425 759.938 141.912C770.035 148.337 775.084 156.385 775.084 166.054C775.084 169.665 774.013 172.266 771.871 173.857C769.729 175.448 767.679 176.244 765.721 176.244H754.797C749.289 176.244 745.097 173.245 742.221 167.248C739.345 161.189 732.888 158.16 722.852 158.16L695.221 157.609C684.45 157.609 679.065 161.128 679.065 168.165C679.065 172.021 682.461 175.173 689.254 177.621C696.108 180.068 704.37 182.241 714.039 184.138C723.77 185.974 733.531 188.208 743.322 190.839C753.114 193.471 761.406 197.816 768.199 203.874C775.054 209.872 778.481 217.369 778.481 226.365C778.481 238.665 774.074 248.151 765.262 254.822C756.511 261.431 741.486 264.736 720.19 264.736L692.375 264.185C679.83 264.185 668.508 260.972 658.41 254.546C648.313 248.059 643.264 239.981 643.264 230.312Z" fill="black" fill-opacity="0.2"/>
<path d="M643.264 230.312C643.264 226.701 644.335 224.131 646.477 222.601C648.619 221.01 650.699 220.214 652.719 220.214H663.643C669.151 220.214 673.343 223.213 676.219 229.21C679.095 235.208 685.552 238.206 695.588 238.206L727.717 238.849C738.488 238.849 743.873 235.33 743.873 228.292C743.873 222.968 737.294 218.776 724.137 215.716C718.262 214.309 711.775 212.932 704.676 211.585C697.577 210.178 690.509 208.434 683.471 206.353C676.494 204.272 670.068 201.824 664.193 199.009C658.318 196.194 653.545 192.339 649.873 187.443C646.262 182.486 644.457 176.672 644.457 170.001C644.457 157.701 648.833 148.246 657.584 141.636C666.335 134.966 681.39 131.63 702.748 131.63L726.065 132.181C738.61 132.181 749.901 135.425 759.938 141.912C770.035 148.337 775.084 156.385 775.084 166.054C775.084 169.665 774.013 172.266 771.871 173.857C769.729 175.448 767.679 176.244 765.721 176.244H754.797C749.289 176.244 745.097 173.245 742.221 167.248C739.345 161.189 732.888 158.16 722.852 158.16L695.221 157.609C684.45 157.609 679.065 161.128 679.065 168.165C679.065 172.021 682.461 175.173 689.254 177.621C696.108 180.068 704.37 182.241 714.039 184.138C723.77 185.974 733.531 188.208 743.322 190.839C753.114 193.471 761.406 197.816 768.199 203.874C775.054 209.872 778.481 217.369 778.481 226.365C778.481 238.665 774.074 248.151 765.262 254.822C756.511 261.431 741.486 264.736 720.19 264.736L692.375 264.185C679.83 264.185 668.508 260.972 658.41 254.546C648.313 248.059 643.264 239.981 643.264 230.312Z" fill="black" fill-opacity="0.2"/>
<path d="M643.264 230.312C643.264 226.701 644.335 224.131 646.477 222.601C648.619 221.01 650.699 220.214 652.719 220.214H663.643C669.151 220.214 673.343 223.213 676.219 229.21C679.095 235.208 685.552 238.206 695.588 238.206L727.717 238.849C738.488 238.849 743.873 235.33 743.873 228.292C743.873 222.968 737.294 218.776 724.137 215.716C718.262 214.309 711.775 212.932 704.676 211.585C697.577 210.178 690.509 208.434 683.471 206.353C676.494 204.272 670.068 201.824 664.193 199.009C658.318 196.194 653.545 192.339 649.873 187.443C646.262 182.486 644.457 176.672 644.457 170.001C644.457 157.701 648.833 148.246 657.584 141.636C666.335 134.966 681.39 131.63 702.748 131.63L726.065 132.181C738.61 132.181 749.901 135.425 759.938 141.912C770.035 148.337 775.084 156.385 775.084 166.054C775.084 169.665 774.013 172.266 771.871 173.857C769.729 175.448 767.679 176.244 765.721 176.244H754.797C749.289 176.244 745.097 173.245 742.221 167.248C739.345 161.189 732.888 158.16 722.852 158.16L695.221 157.609C684.45 157.609 679.065 161.128 679.065 168.165C679.065 172.021 682.461 175.173 689.254 177.621C696.108 180.068 704.37 182.241 714.039 184.138C723.77 185.974 733.531 188.208 743.322 190.839C753.114 193.471 761.406 197.816 768.199 203.874C775.054 209.872 778.481 217.369 778.481 226.365C778.481 238.665 774.074 248.151 765.262 254.822C756.511 261.431 741.486 264.736 720.19 264.736L692.375 264.185C679.83 264.185 668.508 260.972 658.41 254.546C648.313 248.059 643.264 239.981 643.264 230.312Z" fill="black" fill-opacity="0.2"/>
<path d="M643.264 230.312C643.264 226.701 644.335 224.131 646.477 222.601C648.619 221.01 650.699 220.214 652.719 220.214H663.643C669.151 220.214 673.343 223.213 676.219 229.21C679.095 235.208 685.552 238.206 695.588 238.206L727.717 238.849C738.488 238.849 743.873 235.33 743.873 228.292C743.873 222.968 737.294 218.776 724.137 215.716C718.262 214.309 711.775 212.932 704.676 211.585C697.577 210.178 690.509 208.434 683.471 206.353C676.494 204.272 670.068 201.824 664.193 199.009C658.318 196.194 653.545 192.339 649.873 187.443C646.262 182.486 644.457 176.672 644.457 170.001C644.457 157.701 648.833 148.246 657.584 141.636C666.335 134.966 681.39 131.63 702.748 131.63L726.065 132.181C738.61 132.181 749.901 135.425 759.938 141.912C770.035 148.337 775.084 156.385 775.084 166.054C775.084 169.665 774.013 172.266 771.871 173.857C769.729 175.448 767.679 176.244 765.721 176.244H754.797C749.289 176.244 745.097 173.245 742.221 167.248C739.345 161.189 732.888 158.16 722.852 158.16L695.221 157.609C684.45 157.609 679.065 161.128 679.065 168.165C679.065 172.021 682.461 175.173 689.254 177.621C696.108 180.068 704.37 182.241 714.039 184.138C723.77 185.974 733.531 188.208 743.322 190.839C753.114 193.471 761.406 197.816 768.199 203.874C775.054 209.872 778.481 217.369 778.481 226.365C778.481 238.665 774.074 248.151 765.262 254.822C756.511 261.431 741.486 264.736 720.19 264.736L692.375 264.185C679.83 264.185 668.508 260.972 658.41 254.546C648.313 248.059 643.264 239.981 643.264 230.312Z" fill="black" fill-opacity="0.2"/>
<path d="M643.264 230.312C643.264 226.701 644.335 224.131 646.477 222.601C648.619 221.01 650.699 220.214 652.719 220.214H663.643C669.151 220.214 673.343 223.213 676.219 229.21C679.095 235.208 685.552 238.206 695.588 238.206L727.717 238.849C738.488 238.849 743.873 235.33 743.873 228.292C743.873 222.968 737.294 218.776 724.137 215.716C718.262 214.309 711.775 212.932 704.676 211.585C697.577 210.178 690.509 208.434 683.471 206.353C676.494 204.272 670.068 201.824 664.193 199.009C658.318 196.194 653.545 192.339 649.873 187.443C646.262 182.486 644.457 176.672 644.457 170.001C644.457 157.701 648.833 148.246 657.584 141.636C666.335 134.966 681.39 131.63 702.748 131.63L726.065 132.181C738.61 132.181 749.901 135.425 759.938 141.912C770.035 148.337 775.084 156.385 775.084 166.054C775.084 169.665 774.013 172.266 771.871 173.857C769.729 175.448 767.679 176.244 765.721 176.244H754.797C749.289 176.244 745.097 173.245 742.221 167.248C739.345 161.189 732.888 158.16 722.852 158.16L695.221 157.609C684.45 157.609 679.065 161.128 679.065 168.165C679.065 172.021 682.461 175.173 689.254 177.621C696.108 180.068 704.37 182.241 714.039 184.138C723.77 185.974 733.531 188.208 743.322 190.839C753.114 193.471 761.406 197.816 768.199 203.874C775.054 209.872 778.481 217.369 778.481 226.365C778.481 238.665 774.074 248.151 765.262 254.822C756.511 261.431 741.486 264.736 720.19 264.736L692.375 264.185C679.83 264.185 668.508 260.972 658.41 254.546C648.313 248.059 643.264 239.981 643.264 230.312Z" fill="black" fill-opacity="0.2"/>
<path d="M797.299 255.189V140.902C797.299 138.515 798.156 136.496 799.869 134.843C801.583 133.191 803.633 132.365 806.02 132.365H911.861C914.248 132.365 916.268 133.221 917.92 134.935C919.634 136.649 920.49 138.699 920.49 141.085V149.714C920.49 152.101 919.634 154.151 917.92 155.865C916.268 157.517 914.248 158.343 911.861 158.343H831.906V185.056H900.754C903.141 185.056 905.16 185.913 906.813 187.626C908.526 189.279 909.383 191.298 909.383 193.685V202.314C909.383 204.701 908.526 206.751 906.813 208.464C905.16 210.117 903.141 210.943 900.754 210.943H831.906V238.023H911.678C914.003 238.023 915.992 238.849 917.645 240.501C919.297 242.154 920.123 244.173 920.123 246.56V255.373C920.123 257.759 919.266 259.809 917.553 261.523C915.839 263.175 913.789 264.001 911.402 264.001H806.02C803.633 264.001 801.583 263.175 799.869 261.523C798.156 259.809 797.299 257.698 797.299 255.189Z" fill="#0D1B2A"/>
<path d="M797.299 255.189V140.902C797.299 138.515 798.156 136.496 799.869 134.843C801.583 133.191 803.633 132.365 806.02 132.365H911.861C914.248 132.365 916.268 133.221 917.92 134.935C919.634 136.649 920.49 138.699 920.49 141.085V149.714C920.49 152.101 919.634 154.151 917.92 155.865C916.268 157.517 914.248 158.343 911.861 158.343H831.906V185.056H900.754C903.141 185.056 905.16 185.913 906.813 187.626C908.526 189.279 909.383 191.298 909.383 193.685V202.314C909.383 204.701 908.526 206.751 906.813 208.464C905.16 210.117 903.141 210.943 900.754 210.943H831.906V238.023H911.678C914.003 238.023 915.992 238.849 917.645 240.501C919.297 242.154 920.123 244.173 920.123 246.56V255.373C920.123 257.759 919.266 259.809 917.553 261.523C915.839 263.175 913.789 264.001 911.402 264.001H806.02C803.633 264.001 801.583 263.175 799.869 261.523C798.156 259.809 797.299 257.698 797.299 255.189Z" fill="black" fill-opacity="0.2"/>
<path d="M797.299 255.189V140.902C797.299 138.515 798.156 136.496 799.869 134.843C801.583 133.191 803.633 132.365 806.02 132.365H911.861C914.248 132.365 916.268 133.221 917.92 134.935C919.634 136.649 920.49 138.699 920.49 141.085V149.714C920.49 152.101 919.634 154.151 917.92 155.865C916.268 157.517 914.248 158.343 911.861 158.343H831.906V185.056H900.754C903.141 185.056 905.16 185.913 906.813 187.626C908.526 189.279 909.383 191.298 909.383 193.685V202.314C909.383 204.701 908.526 206.751 906.813 208.464C905.16 210.117 903.141 210.943 900.754 210.943H831.906V238.023H911.678C914.003 238.023 915.992 238.849 917.645 240.501C919.297 242.154 920.123 244.173 920.123 246.56V255.373C920.123 257.759 919.266 259.809 917.553 261.523C915.839 263.175 913.789 264.001 911.402 264.001H806.02C803.633 264.001 801.583 263.175 799.869 261.523C798.156 259.809 797.299 257.698 797.299 255.189Z" fill="black" fill-opacity="0.2"/>
<path d="M797.299 255.189V140.902C797.299 138.515 798.156 136.496 799.869 134.843C801.583 133.191 803.633 132.365 806.02 132.365H911.861C914.248 132.365 916.268 133.221 917.92 134.935C919.634 136.649 920.49 138.699 920.49 141.085V149.714C920.49 152.101 919.634 154.151 917.92 155.865C916.268 157.517 914.248 158.343 911.861 158.343H831.906V185.056H900.754C903.141 185.056 905.16 185.913 906.813 187.626C908.526 189.279 909.383 191.298 909.383 193.685V202.314C909.383 204.701 908.526 206.751 906.813 208.464C905.16 210.117 903.141 210.943 900.754 210.943H831.906V238.023H911.678C914.003 238.023 915.992 238.849 917.645 240.501C919.297 242.154 920.123 244.173 920.123 246.56V255.373C920.123 257.759 919.266 259.809 917.553 261.523C915.839 263.175 913.789 264.001 911.402 264.001H806.02C803.633 264.001 801.583 263.175 799.869 261.523C798.156 259.809 797.299 257.698 797.299 255.189Z" fill="black" fill-opacity="0.2"/>
<path d="M797.299 255.189V140.902C797.299 138.515 798.156 136.496 799.869 134.843C801.583 133.191 803.633 132.365 806.02 132.365H911.861C914.248 132.365 916.268 133.221 917.92 134.935C919.634 136.649 920.49 138.699 920.49 141.085V149.714C920.49 152.101 919.634 154.151 917.92 155.865C916.268 157.517 914.248 158.343 911.861 158.343H831.906V185.056H900.754C903.141 185.056 905.16 185.913 906.813 187.626C908.526 189.279 909.383 191.298 909.383 193.685V202.314C909.383 204.701 908.526 206.751 906.813 208.464C905.16 210.117 903.141 210.943 900.754 210.943H831.906V238.023H911.678C914.003 238.023 915.992 238.849 917.645 240.501C919.297 242.154 920.123 244.173 920.123 246.56V255.373C920.123 257.759 919.266 259.809 917.553 261.523C915.839 263.175 913.789 264.001 911.402 264.001H806.02C803.633 264.001 801.583 263.175 799.869 261.523C798.156 259.809 797.299 257.698 797.299 255.189Z" fill="black" fill-opacity="0.2"/>
<path d="M797.299 255.189V140.902C797.299 138.515 798.156 136.496 799.869 134.843C801.583 133.191 803.633 132.365 806.02 132.365H911.861C914.248 132.365 916.268 133.221 917.92 134.935C919.634 136.649 920.49 138.699 920.49 141.085V149.714C920.49 152.101 919.634 154.151 917.92 155.865C916.268 157.517 914.248 158.343 911.861 158.343H831.906V185.056H900.754C903.141 185.056 905.16 185.913 906.813 187.626C908.526 189.279 909.383 191.298 909.383 193.685V202.314C909.383 204.701 908.526 206.751 906.813 208.464C905.16 210.117 903.141 210.943 900.754 210.943H831.906V238.023H911.678C914.003 238.023 915.992 238.849 917.645 240.501C919.297 242.154 920.123 244.173 920.123 246.56V255.373C920.123 257.759 919.266 259.809 917.553 261.523C915.839 263.175 913.789 264.001 911.402 264.001H806.02C803.633 264.001 801.583 263.175 799.869 261.523C798.156 259.809 797.299 257.698 797.299 255.189Z" fill="black" fill-opacity="0.2"/>
<path d="M937.381 255.556V141.269C937.381 138.76 938.238 136.649 939.951 134.935C941.665 133.221 943.715 132.365 946.102 132.365H963.359C965.746 132.365 967.766 133.221 969.418 134.935C971.132 136.649 971.988 138.76 971.988 141.269V238.023H1051.94C1054.33 238.023 1056.35 238.88 1058 240.593C1059.72 242.307 1060.57 244.357 1060.57 246.744V255.373C1060.57 257.759 1059.72 259.809 1058 261.523C1056.35 263.175 1054.33 264.001 1051.94 264.001H946.102C943.715 264.001 941.665 263.206 939.951 261.615C938.238 259.962 937.381 257.943 937.381 255.556Z" fill="#0D1B2A"/>
<path d="M937.381 255.556V141.269C937.381 138.76 938.238 136.649 939.951 134.935C941.665 133.221 943.715 132.365 946.102 132.365H963.359C965.746 132.365 967.766 133.221 969.418 134.935C971.132 136.649 971.988 138.76 971.988 141.269V238.023H1051.94C1054.33 238.023 1056.35 238.88 1058 240.593C1059.72 242.307 1060.57 244.357 1060.57 246.744V255.373C1060.57 257.759 1059.72 259.809 1058 261.523C1056.35 263.175 1054.33 264.001 1051.94 264.001H946.102C943.715 264.001 941.665 263.206 939.951 261.615C938.238 259.962 937.381 257.943 937.381 255.556Z" fill="black" fill-opacity="0.2"/>
<path d="M937.381 255.556V141.269C937.381 138.76 938.238 136.649 939.951 134.935C941.665 133.221 943.715 132.365 946.102 132.365H963.359C965.746 132.365 967.766 133.221 969.418 134.935C971.132 136.649 971.988 138.76 971.988 141.269V238.023H1051.94C1054.33 238.023 1056.35 238.88 1058 240.593C1059.72 242.307 1060.57 244.357 1060.57 246.744V255.373C1060.57 257.759 1059.72 259.809 1058 261.523C1056.35 263.175 1054.33 264.001 1051.94 264.001H946.102C943.715 264.001 941.665 263.206 939.951 261.615C938.238 259.962 937.381 257.943 937.381 255.556Z" fill="black" fill-opacity="0.2"/>
<path d="M937.381 255.556V141.269C937.381 138.76 938.238 136.649 939.951 134.935C941.665 133.221 943.715 132.365 946.102 132.365H963.359C965.746 132.365 967.766 133.221 969.418 134.935C971.132 136.649 971.988 138.76 971.988 141.269V238.023H1051.94C1054.33 238.023 1056.35 238.88 1058 240.593C1059.72 242.307 1060.57 244.357 1060.57 246.744V255.373C1060.57 257.759 1059.72 259.809 1058 261.523C1056.35 263.175 1054.33 264.001 1051.94 264.001H946.102C943.715 264.001 941.665 263.206 939.951 261.615C938.238 259.962 937.381 257.943 937.381 255.556Z" fill="black" fill-opacity="0.2"/>
<path d="M937.381 255.556V141.269C937.381 138.76 938.238 136.649 939.951 134.935C941.665 133.221 943.715 132.365 946.102 132.365H963.359C965.746 132.365 967.766 133.221 969.418 134.935C971.132 136.649 971.988 138.76 971.988 141.269V238.023H1051.94C1054.33 238.023 1056.35 238.88 1058 240.593C1059.72 242.307 1060.57 244.357 1060.57 246.744V255.373C1060.57 257.759 1059.72 259.809 1058 261.523C1056.35 263.175 1054.33 264.001 1051.94 264.001H946.102C943.715 264.001 941.665 263.206 939.951 261.615C938.238 259.962 937.381 257.943 937.381 255.556Z" fill="black" fill-opacity="0.2"/>
<path d="M937.381 255.556V141.269C937.381 138.76 938.238 136.649 939.951 134.935C941.665 133.221 943.715 132.365 946.102 132.365H963.359C965.746 132.365 967.766 133.221 969.418 134.935C971.132 136.649 971.988 138.76 971.988 141.269V238.023H1051.94C1054.33 238.023 1056.35 238.88 1058 240.593C1059.72 242.307 1060.57 244.357 1060.57 246.744V255.373C1060.57 257.759 1059.72 259.809 1058 261.523C1056.35 263.175 1054.33 264.001 1051.94 264.001H946.102C943.715 264.001 941.665 263.206 939.951 261.615C938.238 259.962 937.381 257.943 937.381 255.556Z" fill="black" fill-opacity="0.2"/>
<path d="M1075.63 255.556V141.269C1075.63 138.76 1076.48 136.649 1078.2 134.935C1079.91 133.221 1081.96 132.365 1084.35 132.365H1101.61C1103.99 132.365 1106.01 133.221 1107.66 134.935C1109.38 136.649 1110.23 138.76 1110.23 141.269V238.023H1190.19C1192.58 238.023 1194.6 238.88 1196.25 240.593C1197.96 242.307 1198.82 244.357 1198.82 246.744V255.373C1198.82 257.759 1197.96 259.809 1196.25 261.523C1194.6 263.175 1192.58 264.001 1190.19 264.001H1084.35C1081.96 264.001 1079.91 263.206 1078.2 261.615C1076.48 259.962 1075.63 257.943 1075.63 255.556Z" fill="#0D1B2A"/>
<path d="M1075.63 255.556V141.269C1075.63 138.76 1076.48 136.649 1078.2 134.935C1079.91 133.221 1081.96 132.365 1084.35 132.365H1101.61C1103.99 132.365 1106.01 133.221 1107.66 134.935C1109.38 136.649 1110.23 138.76 1110.23 141.269V238.023H1190.19C1192.58 238.023 1194.6 238.88 1196.25 240.593C1197.96 242.307 1198.82 244.357 1198.82 246.744V255.373C1198.82 257.759 1197.96 259.809 1196.25 261.523C1194.6 263.175 1192.58 264.001 1190.19 264.001H1084.35C1081.96 264.001 1079.91 263.206 1078.2 261.615C1076.48 259.962 1075.63 257.943 1075.63 255.556Z" fill="black" fill-opacity="0.2"/>
<path d="M1075.63 255.556V141.269C1075.63 138.76 1076.48 136.649 1078.2 134.935C1079.91 133.221 1081.96 132.365 1084.35 132.365H1101.61C1103.99 132.365 1106.01 133.221 1107.66 134.935C1109.38 136.649 1110.23 138.76 1110.23 141.269V238.023H1190.19C1192.58 238.023 1194.6 238.88 1196.25 240.593C1197.96 242.307 1198.82 244.357 1198.82 246.744V255.373C1198.82 257.759 1197.96 259.809 1196.25 261.523C1194.6 263.175 1192.58 264.001 1190.19 264.001H1084.35C1081.96 264.001 1079.91 263.206 1078.2 261.615C1076.48 259.962 1075.63 257.943 1075.63 255.556Z" fill="black" fill-opacity="0.2"/>
<path d="M1075.63 255.556V141.269C1075.63 138.76 1076.48 136.649 1078.2 134.935C1079.91 133.221 1081.96 132.365 1084.35 132.365H1101.61C1103.99 132.365 1106.01 133.221 1107.66 134.935C1109.38 136.649 1110.23 138.76 1110.23 141.269V238.023H1190.19C1192.58 238.023 1194.6 238.88 1196.25 240.593C1197.96 242.307 1198.82 244.357 1198.82 246.744V255.373C1198.82 257.759 1197.96 259.809 1196.25 261.523C1194.6 263.175 1192.58 264.001 1190.19 264.001H1084.35C1081.96 264.001 1079.91 263.206 1078.2 261.615C1076.48 259.962 1075.63 257.943 1075.63 255.556Z" fill="black" fill-opacity="0.2"/>
<path d="M1075.63 255.556V141.269C1075.63 138.76 1076.48 136.649 1078.2 134.935C1079.91 133.221 1081.96 132.365 1084.35 132.365H1101.61C1103.99 132.365 1106.01 133.221 1107.66 134.935C1109.38 136.649 1110.23 138.76 1110.23 141.269V238.023H1190.19C1192.58 238.023 1194.6 238.88 1196.25 240.593C1197.96 242.307 1198.82 244.357 1198.82 246.744V255.373C1198.82 257.759 1197.96 259.809 1196.25 261.523C1194.6 263.175 1192.58 264.001 1190.19 264.001H1084.35C1081.96 264.001 1079.91 263.206 1078.2 261.615C1076.48 259.962 1075.63 257.943 1075.63 255.556Z" fill="black" fill-opacity="0.2"/>
<path d="M1075.63 255.556V141.269C1075.63 138.76 1076.48 136.649 1078.2 134.935C1079.91 133.221 1081.96 132.365 1084.35 132.365H1101.61C1103.99 132.365 1106.01 133.221 1107.66 134.935C1109.38 136.649 1110.23 138.76 1110.23 141.269V238.023H1190.19C1192.58 238.023 1194.6 238.88 1196.25 240.593C1197.96 242.307 1198.82 244.357 1198.82 246.744V255.373C1198.82 257.759 1197.96 259.809 1196.25 261.523C1194.6 263.175 1192.58 264.001 1190.19 264.001H1084.35C1081.96 264.001 1079.91 263.206 1078.2 261.615C1076.48 259.962 1075.63 257.943 1075.63 255.556Z" fill="black" fill-opacity="0.2"/>
<path d="M176.401 227.91C177.066 228.324 176.65 229.568 175.76 229.826L29.5421 272.219C10.5939 277.713 -2.99278 262.882 2.56361 242.771L4.46662 235.883C10.3707 214.513 28.6787 196.275 48.7769 191.741L93.5856 181.634C97.9838 180.641 102.162 181.236 105.431 183.318L133.621 201.273L176.401 227.91Z" fill="url(#paint0_linear_376_104)"/>
<path d="M174.781 3.05589C195.424 -6.48554 212.266 7.9082 209.009 32.3075C206.764 49.1177 195.412 65.5857 181.231 72.6035L75.0396 125.154C58.2872 133.445 44.3055 121.975 46.957 102.116L50.4141 76.2249C51.726 66.3996 58.4777 56.812 66.7904 52.9698L174.781 3.05589Z" fill="url(#paint1_linear_376_104)"/>
<path d="M167.157 219.565C178.027 226.393 190.89 220.507 193.509 207.506L194.918 200.514C200.386 173.371 188.613 143.975 166.263 128.965L65.7121 61.437C59.1617 57.0378 51.1916 60.5141 49.5889 68.4693L39.0228 120.916C37.1221 130.351 41.3673 140.553 49.2561 145.508L167.157 219.565Z" fill="url(#paint2_linear_376_104)"/>
<path d="M179.407 376.248C190.466 382.692 203.835 376.591 206.806 363.883C214.145 332.497 200.447 298.521 173.473 281.916L44.0698 202.255C30.5541 193.935 13.8586 200.703 9.59177 216.232L1.85447 244.391C-2.04233 258.574 4.20587 274.165 16.705 281.447L179.407 376.248Z" fill="url(#paint3_linear_376_104)"/>
<defs>
<linearGradient id="paint0_linear_376_104" x1="611.407" y1="-64.4191" x2="611.407" y2="374.658" gradientUnits="userSpaceOnUse">
<stop stop-color="#0D1B2A"/>
<stop offset="1" stop-color="#2D5D90"/>
</linearGradient>
<linearGradient id="paint1_linear_376_104" x1="774.127" y1="13.7498" x2="774.127" y2="392.509" gradientUnits="userSpaceOnUse">
<stop stop-color="#0D1B2A"/>
<stop offset="1" stop-color="#2D5D90"/>
</linearGradient>
<linearGradient id="paint2_linear_376_104" x1="599.761" y1="0.0820312" x2="599.761" y2="378.842" gradientUnits="userSpaceOnUse">
<stop stop-color="#0466C8"/>
<stop offset="1" stop-color="#023262"/>
</linearGradient>
<linearGradient id="paint3_linear_376_104" x1="220.473" y1="355.713" x2="-12.412" y2="240.237" gradientUnits="userSpaceOnUse">
<stop stop-color="#0466C8"/>
<stop offset="1" stop-color="#023262"/>
</linearGradient>
</defs>
</svg>
