<svg width="87" height="88" viewBox="0 0 87 88" fill="none" xmlns="http://www.w3.org/2000/svg">
<path d="M1.85657 43.3151C1.85453 50.6819 3.7794 57.8751 7.43952 64.2152L1.50653 85.8775L23.6752 80.0648C29.8068 83.4027 36.6768 85.1518 43.658 85.1523H43.6764C66.7229 85.1523 85.4833 66.3987 85.4932 43.3481C85.4976 32.1785 81.1517 21.6752 73.2557 13.7732C65.3611 5.87182 54.8617 1.51808 43.6747 1.51298C20.6255 1.51298 1.86608 20.2656 1.85657 43.3151Z" fill="url(#paint0_linear_237_2)"/>
<path d="M0.363633 43.3016C0.361254 50.9335 2.35512 58.3839 6.14573 64.951L0 87.3899L22.9636 81.3689C29.2908 84.8186 36.4146 86.6375 43.6635 86.6402H43.6822C67.5555 86.6402 86.9898 67.212 87 43.3362C87.0041 31.7652 82.5018 20.8844 74.3238 12.6993C66.1448 4.51517 55.2698 0.00475782 43.6822 0C19.8047 0 0.373148 19.4255 0.363633 43.3016ZM14.0393 63.82L13.1819 62.4589C9.57748 56.7278 7.67503 50.1049 7.67775 43.3043C7.68523 23.4591 23.836 7.31344 43.6958 7.31344C53.3133 7.31752 62.3518 11.0667 69.15 17.869C75.9479 24.672 79.6886 33.7153 79.6862 43.3335C79.6774 63.1787 63.5263 79.3264 43.6822 79.3264H43.6679C37.2064 79.323 30.8694 77.5878 25.3428 74.3086L24.0276 73.5287L10.4006 77.1014L14.0393 63.82Z" fill="url(#paint1_linear_237_2)"/>
<path d="M32.8554 25.1987C32.0445 23.3965 31.1912 23.3602 30.4201 23.3286C29.7887 23.3014 29.0668 23.3034 28.3457 23.3034C27.6239 23.3034 26.4511 23.575 25.4597 24.6574C24.4674 25.7408 21.6711 28.3589 21.6711 33.6839C21.6711 39.009 25.5498 44.1555 26.0905 44.8784C26.6319 45.5999 33.5783 56.8773 44.5797 61.2157C53.7229 64.8211 55.5835 64.104 57.5679 63.9232C59.5526 63.7431 63.9719 61.3058 64.8735 58.7783C65.7758 56.2513 65.7758 54.0851 65.5053 53.6324C65.2347 53.1815 64.5129 52.9106 63.4305 52.3696C62.3481 51.8285 57.0265 49.2097 56.0345 48.8484C55.0421 48.4875 54.3207 48.3074 53.5988 49.3912C52.877 50.4732 50.8043 52.9106 50.1725 53.6324C49.5414 54.356 48.9097 54.446 47.8276 53.9046C46.7445 53.3616 43.2587 52.22 39.1232 48.5331C35.9055 45.6641 33.7332 42.1212 33.1018 41.0375C32.4704 39.9554 33.0342 39.3689 33.5769 38.8295C34.0632 38.3446 34.6597 37.5656 35.2014 36.9339C35.741 36.3018 35.9212 35.8508 36.2821 35.129C36.6433 34.4065 36.4625 33.7743 36.1923 33.233C35.9211 32.6916 33.8179 27.3387 32.8554 25.1987Z" fill="white"/>
<defs>
<linearGradient id="paint0_linear_237_2" x1="4350" y1="8738.99" x2="4350" y2="0" gradientUnits="userSpaceOnUse">
<stop stop-color="#1FAF38"/>
<stop offset="1" stop-color="#60D669"/>
</linearGradient>
<linearGradient id="paint1_linear_237_2" x1="4350" y1="8738.99" x2="4350" y2="0" gradientUnits="userSpaceOnUse">
<stop stop-color="#F9F9F9"/>
<stop offset="1" stop-color="white"/>
</linearGradient>
</defs>
</svg>
