<svg width="210" height="379" viewBox="0 0 210 379" fill="none" xmlns="http://www.w3.org/2000/svg">
<path d="M176.401 227.909C177.066 228.323 176.65 229.567 175.76 229.825L29.5421 272.218C10.5939 277.712 -2.99278 262.881 2.56361 242.77L4.46662 235.882C10.3707 214.512 28.6787 196.274 48.7769 191.74L93.5856 181.632C97.9838 180.64 102.162 181.234 105.431 183.317L133.621 201.272L176.401 227.909Z" fill="url(#paint0_linear_329_80)"/>
<path d="M174.781 3.05467C195.424 -6.48676 212.266 7.90698 209.009 32.3063C206.764 49.1164 195.412 65.5845 181.231 72.6023L75.0396 125.153C58.2872 133.443 44.3055 121.973 46.957 102.115L50.4141 76.2237C51.726 66.3984 58.4777 56.8108 66.7904 52.9686L174.781 3.05467Z" fill="url(#paint1_linear_329_80)"/>
<path d="M167.157 219.563C178.027 226.391 190.89 220.506 193.509 207.505L194.918 200.513C200.386 173.37 188.613 143.974 166.263 128.964L65.7121 61.4358C59.1617 57.0366 51.1916 60.5129 49.5889 68.4681L39.0228 120.915C37.1221 130.35 41.3673 140.552 49.2561 145.507L167.157 219.563Z" fill="url(#paint2_linear_329_80)"/>
<path d="M179.407 376.247C190.466 382.691 203.835 376.59 206.806 363.882C214.145 332.495 200.447 298.52 173.473 281.915L44.0698 202.254C30.5541 193.933 13.8586 200.701 9.59177 216.231L1.85447 244.39C-2.04233 258.573 4.20587 274.163 16.705 281.446L179.407 376.247Z" fill="url(#paint3_linear_329_80)"/>
<defs>
<linearGradient id="paint0_linear_329_80" x1="106.566" y1="-4.03226" x2="106.566" y2="383.442" gradientUnits="userSpaceOnUse">
<stop stop-color="#0466C8"/>
<stop offset="1" stop-color="#023262"/>
</linearGradient>
<linearGradient id="paint1_linear_329_80" x1="106.566" y1="-4.03226" x2="106.566" y2="383.442" gradientUnits="userSpaceOnUse">
<stop stop-color="#0466C8"/>
<stop offset="1" stop-color="#023262"/>
</linearGradient>
<linearGradient id="paint2_linear_329_80" x1="106.566" y1="-4.03226" x2="106.566" y2="383.442" gradientUnits="userSpaceOnUse">
<stop stop-color="#0466C8"/>
<stop offset="1" stop-color="#023262"/>
</linearGradient>
<linearGradient id="paint3_linear_329_80" x1="106.566" y1="-4.03226" x2="106.566" y2="383.442" gradientUnits="userSpaceOnUse">
<stop stop-color="#0466C8"/>
<stop offset="1" stop-color="#023262"/>
</linearGradient>
</defs>
</svg>
