<svg width="324" height="103" viewBox="0 0 324 103" fill="none" xmlns="http://www.w3.org/2000/svg">
<g clip-path="url(#clip0_165_180)">
<path d="M78.1184 37.8239C78.0358 37.6257 77.9944 37.4026 77.9944 37.1547C77.9944 36.8904 78.1349 36.5929 78.4158 36.2625C78.7132 35.9155 79.1511 35.742 79.7294 35.742H85.1574C85.8018 35.742 86.3966 35.965 86.9419 36.4112C87.4872 36.8573 87.8755 37.4191 88.1068 38.0966L94.6501 57.7264L100.698 38.0966C101.177 36.5268 102.16 35.742 103.647 35.742H108.208C109.695 35.742 110.678 36.5268 111.157 38.0966L117.205 57.7264L123.748 38.0966C123.979 37.4191 124.367 36.8573 124.913 36.4112C125.458 35.965 126.053 35.742 126.697 35.742H132.125C132.687 35.742 133.108 35.9155 133.389 36.2625C133.687 36.5929 133.835 36.8904 133.835 37.1547C133.835 37.4026 133.802 37.6257 133.736 37.8239L122.682 68.7558C122.071 70.4412 120.881 71.2839 119.113 71.2839H115.519C113.685 71.2839 112.504 70.4412 111.975 68.7558L105.927 49.6712L99.8797 68.7558C99.3345 70.4412 98.153 71.2839 96.3355 71.2839H92.7168C90.9653 71.2839 89.7839 70.4412 89.1726 68.7558L78.1184 37.8239Z" fill="#0466C8"/>
<path d="M137.9 68.9045V38.047C137.9 37.4026 138.131 36.8573 138.594 36.4112C139.057 35.965 139.61 35.742 140.255 35.742H168.832C169.476 35.742 170.022 35.9733 170.468 36.436C170.931 36.8986 171.162 37.4522 171.162 38.0966V40.4264C171.162 41.0708 170.931 41.6243 170.468 42.087C170.022 42.5331 169.476 42.7562 168.832 42.7562H147.244V49.9687H165.833C166.477 49.9687 167.023 50.2 167.469 50.6626C167.932 51.1088 168.163 51.6541 168.163 52.2985V54.6283C168.163 55.2727 167.932 55.8262 167.469 56.2889C167.023 56.735 166.477 56.9581 165.833 56.9581H147.244V64.2697H168.782C169.41 64.2697 169.947 64.4928 170.394 64.9389C170.84 65.385 171.063 65.9303 171.063 66.5747V68.9541C171.063 69.5985 170.831 70.152 170.369 70.6147C169.906 71.0608 169.353 71.2839 168.708 71.2839H140.255C139.61 71.2839 139.057 71.0608 138.594 70.6147C138.131 70.152 137.9 69.582 137.9 68.9045Z" fill="#0466C8"/>
<path d="M173.69 62.1877C173.69 61.2129 173.979 60.5189 174.557 60.1058C175.136 59.6762 175.698 59.4614 176.243 59.4614H179.192C180.679 59.4614 181.811 60.271 182.588 61.8903C183.364 63.5096 185.108 64.3193 187.817 64.3193L196.492 64.4928C199.4 64.4928 200.854 63.5427 200.854 61.6425C200.854 60.2049 199.078 59.0731 195.526 58.2469C193.939 57.8669 192.188 57.4951 190.271 57.1316C188.354 56.7515 186.446 56.2806 184.546 55.7188C182.662 55.157 180.927 54.4961 179.341 53.736C177.755 52.9759 176.466 51.935 175.474 50.6131C174.5 49.2747 174.012 47.705 174.012 45.9039C174.012 42.5827 175.194 40.0298 177.556 38.2453C179.919 36.4442 183.984 35.5437 189.751 35.5437L196.046 35.6924C199.433 35.6924 202.482 36.5682 205.192 38.3196C207.918 40.0546 209.281 42.2274 209.281 44.8381C209.281 45.813 208.992 46.5153 208.414 46.9449C207.836 47.3745 207.282 47.5893 206.753 47.5893H203.804C202.317 47.5893 201.185 46.7796 200.408 45.1603C199.632 43.5245 197.889 42.7066 195.179 42.7066L187.718 42.5579C184.81 42.5579 183.356 43.508 183.356 45.4082C183.356 46.4492 184.273 47.3001 186.107 47.9611C187.958 48.622 190.189 49.2086 192.799 49.7208C195.427 50.2165 198.062 50.8196 200.706 51.5301C203.35 52.2406 205.588 53.4138 207.423 55.0496C209.273 56.6689 210.198 58.693 210.198 61.122C210.198 64.4432 209.009 67.0043 206.629 68.8054C204.267 70.5899 200.21 71.4822 194.46 71.4822L186.95 71.3335C183.563 71.3335 180.506 70.466 177.779 68.731C175.053 66.9795 173.69 64.7984 173.69 62.1877Z" fill="#0D1B2A"/>
<path d="M173.69 62.1877C173.69 61.2129 173.979 60.5189 174.557 60.1058C175.136 59.6762 175.698 59.4614 176.243 59.4614H179.192C180.679 59.4614 181.811 60.271 182.588 61.8903C183.364 63.5096 185.108 64.3193 187.817 64.3193L196.492 64.4928C199.4 64.4928 200.854 63.5427 200.854 61.6425C200.854 60.2049 199.078 59.0731 195.526 58.2469C193.939 57.8669 192.188 57.4951 190.271 57.1316C188.354 56.7515 186.446 56.2806 184.546 55.7188C182.662 55.157 180.927 54.4961 179.341 53.736C177.755 52.9759 176.466 51.935 175.474 50.6131C174.5 49.2747 174.012 47.705 174.012 45.9039C174.012 42.5827 175.194 40.0298 177.556 38.2453C179.919 36.4442 183.984 35.5437 189.751 35.5437L196.046 35.6924C199.433 35.6924 202.482 36.5682 205.192 38.3196C207.918 40.0546 209.281 42.2274 209.281 44.8381C209.281 45.813 208.992 46.5153 208.414 46.9449C207.836 47.3745 207.282 47.5893 206.753 47.5893H203.804C202.317 47.5893 201.185 46.7796 200.408 45.1603C199.632 43.5245 197.889 42.7066 195.179 42.7066L187.718 42.5579C184.81 42.5579 183.356 43.508 183.356 45.4082C183.356 46.4492 184.273 47.3001 186.107 47.9611C187.958 48.622 190.189 49.2086 192.799 49.7208C195.427 50.2165 198.062 50.8196 200.706 51.5301C203.35 52.2406 205.588 53.4138 207.423 55.0496C209.273 56.6689 210.198 58.693 210.198 61.122C210.198 64.4432 209.009 67.0043 206.629 68.8054C204.267 70.5899 200.21 71.4822 194.46 71.4822L186.95 71.3335C183.563 71.3335 180.506 70.466 177.779 68.731C175.053 66.9795 173.69 64.7984 173.69 62.1877Z" fill="black" fill-opacity="0.2"/>
<path d="M173.69 62.1877C173.69 61.2129 173.979 60.5189 174.557 60.1058C175.136 59.6762 175.698 59.4614 176.243 59.4614H179.192C180.679 59.4614 181.811 60.271 182.588 61.8903C183.364 63.5096 185.108 64.3193 187.817 64.3193L196.492 64.4928C199.4 64.4928 200.854 63.5427 200.854 61.6425C200.854 60.2049 199.078 59.0731 195.526 58.2469C193.939 57.8669 192.188 57.4951 190.271 57.1316C188.354 56.7515 186.446 56.2806 184.546 55.7188C182.662 55.157 180.927 54.4961 179.341 53.736C177.755 52.9759 176.466 51.935 175.474 50.6131C174.5 49.2747 174.012 47.705 174.012 45.9039C174.012 42.5827 175.194 40.0298 177.556 38.2453C179.919 36.4442 183.984 35.5437 189.751 35.5437L196.046 35.6924C199.433 35.6924 202.482 36.5682 205.192 38.3196C207.918 40.0546 209.281 42.2274 209.281 44.8381C209.281 45.813 208.992 46.5153 208.414 46.9449C207.836 47.3745 207.282 47.5893 206.753 47.5893H203.804C202.317 47.5893 201.185 46.7796 200.408 45.1603C199.632 43.5245 197.889 42.7066 195.179 42.7066L187.718 42.5579C184.81 42.5579 183.356 43.508 183.356 45.4082C183.356 46.4492 184.273 47.3001 186.107 47.9611C187.958 48.622 190.189 49.2086 192.799 49.7208C195.427 50.2165 198.062 50.8196 200.706 51.5301C203.35 52.2406 205.588 53.4138 207.423 55.0496C209.273 56.6689 210.198 58.693 210.198 61.122C210.198 64.4432 209.009 67.0043 206.629 68.8054C204.267 70.5899 200.21 71.4822 194.46 71.4822L186.95 71.3335C183.563 71.3335 180.506 70.466 177.779 68.731C175.053 66.9795 173.69 64.7984 173.69 62.1877Z" fill="black" fill-opacity="0.2"/>
<path d="M173.69 62.1877C173.69 61.2129 173.979 60.5189 174.557 60.1058C175.136 59.6762 175.698 59.4614 176.243 59.4614H179.192C180.679 59.4614 181.811 60.271 182.588 61.8903C183.364 63.5096 185.108 64.3193 187.817 64.3193L196.492 64.4928C199.4 64.4928 200.854 63.5427 200.854 61.6425C200.854 60.2049 199.078 59.0731 195.526 58.2469C193.939 57.8669 192.188 57.4951 190.271 57.1316C188.354 56.7515 186.446 56.2806 184.546 55.7188C182.662 55.157 180.927 54.4961 179.341 53.736C177.755 52.9759 176.466 51.935 175.474 50.6131C174.5 49.2747 174.012 47.705 174.012 45.9039C174.012 42.5827 175.194 40.0298 177.556 38.2453C179.919 36.4442 183.984 35.5437 189.751 35.5437L196.046 35.6924C199.433 35.6924 202.482 36.5682 205.192 38.3196C207.918 40.0546 209.281 42.2274 209.281 44.8381C209.281 45.813 208.992 46.5153 208.414 46.9449C207.836 47.3745 207.282 47.5893 206.753 47.5893H203.804C202.317 47.5893 201.185 46.7796 200.408 45.1603C199.632 43.5245 197.889 42.7066 195.179 42.7066L187.718 42.5579C184.81 42.5579 183.356 43.508 183.356 45.4082C183.356 46.4492 184.273 47.3001 186.107 47.9611C187.958 48.622 190.189 49.2086 192.799 49.7208C195.427 50.2165 198.062 50.8196 200.706 51.5301C203.35 52.2406 205.588 53.4138 207.423 55.0496C209.273 56.6689 210.198 58.693 210.198 61.122C210.198 64.4432 209.009 67.0043 206.629 68.8054C204.267 70.5899 200.21 71.4822 194.46 71.4822L186.95 71.3335C183.563 71.3335 180.506 70.466 177.779 68.731C175.053 66.9795 173.69 64.7984 173.69 62.1877Z" fill="black" fill-opacity="0.2"/>
<path d="M173.69 62.1877C173.69 61.2129 173.979 60.5189 174.557 60.1058C175.136 59.6762 175.698 59.4614 176.243 59.4614H179.192C180.679 59.4614 181.811 60.271 182.588 61.8903C183.364 63.5096 185.108 64.3193 187.817 64.3193L196.492 64.4928C199.4 64.4928 200.854 63.5427 200.854 61.6425C200.854 60.2049 199.078 59.0731 195.526 58.2469C193.939 57.8669 192.188 57.4951 190.271 57.1316C188.354 56.7515 186.446 56.2806 184.546 55.7188C182.662 55.157 180.927 54.4961 179.341 53.736C177.755 52.9759 176.466 51.935 175.474 50.6131C174.5 49.2747 174.012 47.705 174.012 45.9039C174.012 42.5827 175.194 40.0298 177.556 38.2453C179.919 36.4442 183.984 35.5437 189.751 35.5437L196.046 35.6924C199.433 35.6924 202.482 36.5682 205.192 38.3196C207.918 40.0546 209.281 42.2274 209.281 44.8381C209.281 45.813 208.992 46.5153 208.414 46.9449C207.836 47.3745 207.282 47.5893 206.753 47.5893H203.804C202.317 47.5893 201.185 46.7796 200.408 45.1603C199.632 43.5245 197.889 42.7066 195.179 42.7066L187.718 42.5579C184.81 42.5579 183.356 43.508 183.356 45.4082C183.356 46.4492 184.273 47.3001 186.107 47.9611C187.958 48.622 190.189 49.2086 192.799 49.7208C195.427 50.2165 198.062 50.8196 200.706 51.5301C203.35 52.2406 205.588 53.4138 207.423 55.0496C209.273 56.6689 210.198 58.693 210.198 61.122C210.198 64.4432 209.009 67.0043 206.629 68.8054C204.267 70.5899 200.21 71.4822 194.46 71.4822L186.95 71.3335C183.563 71.3335 180.506 70.466 177.779 68.731C175.053 66.9795 173.69 64.7984 173.69 62.1877Z" fill="black" fill-opacity="0.2"/>
<path d="M173.69 62.1877C173.69 61.2129 173.979 60.5189 174.557 60.1058C175.136 59.6762 175.698 59.4614 176.243 59.4614H179.192C180.679 59.4614 181.811 60.271 182.588 61.8903C183.364 63.5096 185.108 64.3193 187.817 64.3193L196.492 64.4928C199.4 64.4928 200.854 63.5427 200.854 61.6425C200.854 60.2049 199.078 59.0731 195.526 58.2469C193.939 57.8669 192.188 57.4951 190.271 57.1316C188.354 56.7515 186.446 56.2806 184.546 55.7188C182.662 55.157 180.927 54.4961 179.341 53.736C177.755 52.9759 176.466 51.935 175.474 50.6131C174.5 49.2747 174.012 47.705 174.012 45.9039C174.012 42.5827 175.194 40.0298 177.556 38.2453C179.919 36.4442 183.984 35.5437 189.751 35.5437L196.046 35.6924C199.433 35.6924 202.482 36.5682 205.192 38.3196C207.918 40.0546 209.281 42.2274 209.281 44.8381C209.281 45.813 208.992 46.5153 208.414 46.9449C207.836 47.3745 207.282 47.5893 206.753 47.5893H203.804C202.317 47.5893 201.185 46.7796 200.408 45.1603C199.632 43.5245 197.889 42.7066 195.179 42.7066L187.718 42.5579C184.81 42.5579 183.356 43.508 183.356 45.4082C183.356 46.4492 184.273 47.3001 186.107 47.9611C187.958 48.622 190.189 49.2086 192.799 49.7208C195.427 50.2165 198.062 50.8196 200.706 51.5301C203.35 52.2406 205.588 53.4138 207.423 55.0496C209.273 56.6689 210.198 58.693 210.198 61.122C210.198 64.4432 209.009 67.0043 206.629 68.8054C204.267 70.5899 200.21 71.4822 194.46 71.4822L186.95 71.3335C183.563 71.3335 180.506 70.466 177.779 68.731C175.053 66.9795 173.69 64.7984 173.69 62.1877Z" fill="black" fill-opacity="0.2"/>
<path d="M215.279 68.9045V38.047C215.279 37.4026 215.511 36.8573 215.973 36.4112C216.436 35.965 216.99 35.742 217.634 35.742H246.211C246.856 35.742 247.401 35.9733 247.847 36.436C248.31 36.8986 248.541 37.4522 248.541 38.0966V40.4264C248.541 41.0708 248.31 41.6243 247.847 42.087C247.401 42.5331 246.856 42.7562 246.211 42.7562H224.623V49.9687H243.212C243.857 49.9687 244.402 50.2 244.848 50.6626C245.311 51.1088 245.542 51.6541 245.542 52.2985V54.6283C245.542 55.2727 245.311 55.8262 244.848 56.2889C244.402 56.735 243.857 56.9581 243.212 56.9581H224.623V64.2697H246.162C246.79 64.2697 247.327 64.4928 247.773 64.9389C248.219 65.385 248.442 65.9303 248.442 66.5747V68.9541C248.442 69.5985 248.211 70.152 247.748 70.6147C247.285 71.0608 246.732 71.2839 246.087 71.2839H217.634C216.99 71.2839 216.436 71.0608 215.973 70.6147C215.511 70.152 215.279 69.582 215.279 68.9045Z" fill="#0D1B2A"/>
<path d="M215.279 68.9045V38.047C215.279 37.4026 215.511 36.8573 215.973 36.4112C216.436 35.965 216.99 35.742 217.634 35.742H246.211C246.856 35.742 247.401 35.9733 247.847 36.436C248.31 36.8986 248.541 37.4522 248.541 38.0966V40.4264C248.541 41.0708 248.31 41.6243 247.847 42.087C247.401 42.5331 246.856 42.7562 246.211 42.7562H224.623V49.9687H243.212C243.857 49.9687 244.402 50.2 244.848 50.6626C245.311 51.1088 245.542 51.6541 245.542 52.2985V54.6283C245.542 55.2727 245.311 55.8262 244.848 56.2889C244.402 56.735 243.857 56.9581 243.212 56.9581H224.623V64.2697H246.162C246.79 64.2697 247.327 64.4928 247.773 64.9389C248.219 65.385 248.442 65.9303 248.442 66.5747V68.9541C248.442 69.5985 248.211 70.152 247.748 70.6147C247.285 71.0608 246.732 71.2839 246.087 71.2839H217.634C216.99 71.2839 216.436 71.0608 215.973 70.6147C215.511 70.152 215.279 69.582 215.279 68.9045Z" fill="black" fill-opacity="0.2"/>
<path d="M215.279 68.9045V38.047C215.279 37.4026 215.511 36.8573 215.973 36.4112C216.436 35.965 216.99 35.742 217.634 35.742H246.211C246.856 35.742 247.401 35.9733 247.847 36.436C248.31 36.8986 248.541 37.4522 248.541 38.0966V40.4264C248.541 41.0708 248.31 41.6243 247.847 42.087C247.401 42.5331 246.856 42.7562 246.211 42.7562H224.623V49.9687H243.212C243.857 49.9687 244.402 50.2 244.848 50.6626C245.311 51.1088 245.542 51.6541 245.542 52.2985V54.6283C245.542 55.2727 245.311 55.8262 244.848 56.2889C244.402 56.735 243.857 56.9581 243.212 56.9581H224.623V64.2697H246.162C246.79 64.2697 247.327 64.4928 247.773 64.9389C248.219 65.385 248.442 65.9303 248.442 66.5747V68.9541C248.442 69.5985 248.211 70.152 247.748 70.6147C247.285 71.0608 246.732 71.2839 246.087 71.2839H217.634C216.99 71.2839 216.436 71.0608 215.973 70.6147C215.511 70.152 215.279 69.582 215.279 68.9045Z" fill="black" fill-opacity="0.2"/>
<path d="M215.279 68.9045V38.047C215.279 37.4026 215.511 36.8573 215.973 36.4112C216.436 35.965 216.99 35.742 217.634 35.742H246.211C246.856 35.742 247.401 35.9733 247.847 36.436C248.31 36.8986 248.541 37.4522 248.541 38.0966V40.4264C248.541 41.0708 248.31 41.6243 247.847 42.087C247.401 42.5331 246.856 42.7562 246.211 42.7562H224.623V49.9687H243.212C243.857 49.9687 244.402 50.2 244.848 50.6626C245.311 51.1088 245.542 51.6541 245.542 52.2985V54.6283C245.542 55.2727 245.311 55.8262 244.848 56.2889C244.402 56.735 243.857 56.9581 243.212 56.9581H224.623V64.2697H246.162C246.79 64.2697 247.327 64.4928 247.773 64.9389C248.219 65.385 248.442 65.9303 248.442 66.5747V68.9541C248.442 69.5985 248.211 70.152 247.748 70.6147C247.285 71.0608 246.732 71.2839 246.087 71.2839H217.634C216.99 71.2839 216.436 71.0608 215.973 70.6147C215.511 70.152 215.279 69.582 215.279 68.9045Z" fill="black" fill-opacity="0.2"/>
<path d="M215.279 68.9045V38.047C215.279 37.4026 215.511 36.8573 215.973 36.4112C216.436 35.965 216.99 35.742 217.634 35.742H246.211C246.856 35.742 247.401 35.9733 247.847 36.436C248.31 36.8986 248.541 37.4522 248.541 38.0966V40.4264C248.541 41.0708 248.31 41.6243 247.847 42.087C247.401 42.5331 246.856 42.7562 246.211 42.7562H224.623V49.9687H243.212C243.857 49.9687 244.402 50.2 244.848 50.6626C245.311 51.1088 245.542 51.6541 245.542 52.2985V54.6283C245.542 55.2727 245.311 55.8262 244.848 56.2889C244.402 56.735 243.857 56.9581 243.212 56.9581H224.623V64.2697H246.162C246.79 64.2697 247.327 64.4928 247.773 64.9389C248.219 65.385 248.442 65.9303 248.442 66.5747V68.9541C248.442 69.5985 248.211 70.152 247.748 70.6147C247.285 71.0608 246.732 71.2839 246.087 71.2839H217.634C216.99 71.2839 216.436 71.0608 215.973 70.6147C215.511 70.152 215.279 69.582 215.279 68.9045Z" fill="black" fill-opacity="0.2"/>
<path d="M215.279 68.9045V38.047C215.279 37.4026 215.511 36.8573 215.973 36.4112C216.436 35.965 216.99 35.742 217.634 35.742H246.211C246.856 35.742 247.401 35.9733 247.847 36.436C248.31 36.8986 248.541 37.4522 248.541 38.0966V40.4264C248.541 41.0708 248.31 41.6243 247.847 42.087C247.401 42.5331 246.856 42.7562 246.211 42.7562H224.623V49.9687H243.212C243.857 49.9687 244.402 50.2 244.848 50.6626C245.311 51.1088 245.542 51.6541 245.542 52.2985V54.6283C245.542 55.2727 245.311 55.8262 244.848 56.2889C244.402 56.735 243.857 56.9581 243.212 56.9581H224.623V64.2697H246.162C246.79 64.2697 247.327 64.4928 247.773 64.9389C248.219 65.385 248.442 65.9303 248.442 66.5747V68.9541C248.442 69.5985 248.211 70.152 247.748 70.6147C247.285 71.0608 246.732 71.2839 246.087 71.2839H217.634C216.99 71.2839 216.436 71.0608 215.973 70.6147C215.511 70.152 215.279 69.582 215.279 68.9045Z" fill="black" fill-opacity="0.2"/>
<path d="M253.102 69.0037V38.1461C253.102 37.4687 253.333 36.8986 253.796 36.436C254.258 35.9733 254.812 35.742 255.456 35.742H260.116C260.76 35.742 261.305 35.9733 261.752 36.436C262.214 36.8986 262.446 37.4687 262.446 38.1461V64.2697H284.033C284.678 64.2697 285.223 64.501 285.669 64.9637C286.132 65.4263 286.363 65.9799 286.363 66.6243V68.9541C286.363 69.5985 286.132 70.152 285.669 70.6147C285.223 71.0608 284.678 71.2839 284.033 71.2839H255.456C254.812 71.2839 254.258 71.0691 253.796 70.6395C253.333 70.1934 253.102 69.6481 253.102 69.0037Z" fill="#0D1B2A"/>
<path d="M253.102 69.0037V38.1461C253.102 37.4687 253.333 36.8986 253.796 36.436C254.258 35.9733 254.812 35.742 255.456 35.742H260.116C260.76 35.742 261.305 35.9733 261.752 36.436C262.214 36.8986 262.446 37.4687 262.446 38.1461V64.2697H284.033C284.678 64.2697 285.223 64.501 285.669 64.9637C286.132 65.4263 286.363 65.9799 286.363 66.6243V68.9541C286.363 69.5985 286.132 70.152 285.669 70.6147C285.223 71.0608 284.678 71.2839 284.033 71.2839H255.456C254.812 71.2839 254.258 71.0691 253.796 70.6395C253.333 70.1934 253.102 69.6481 253.102 69.0037Z" fill="black" fill-opacity="0.2"/>
<path d="M253.102 69.0037V38.1461C253.102 37.4687 253.333 36.8986 253.796 36.436C254.258 35.9733 254.812 35.742 255.456 35.742H260.116C260.76 35.742 261.305 35.9733 261.752 36.436C262.214 36.8986 262.446 37.4687 262.446 38.1461V64.2697H284.033C284.678 64.2697 285.223 64.501 285.669 64.9637C286.132 65.4263 286.363 65.9799 286.363 66.6243V68.9541C286.363 69.5985 286.132 70.152 285.669 70.6147C285.223 71.0608 284.678 71.2839 284.033 71.2839H255.456C254.812 71.2839 254.258 71.0691 253.796 70.6395C253.333 70.1934 253.102 69.6481 253.102 69.0037Z" fill="black" fill-opacity="0.2"/>
<path d="M253.102 69.0037V38.1461C253.102 37.4687 253.333 36.8986 253.796 36.436C254.258 35.9733 254.812 35.742 255.456 35.742H260.116C260.76 35.742 261.305 35.9733 261.752 36.436C262.214 36.8986 262.446 37.4687 262.446 38.1461V64.2697H284.033C284.678 64.2697 285.223 64.501 285.669 64.9637C286.132 65.4263 286.363 65.9799 286.363 66.6243V68.9541C286.363 69.5985 286.132 70.152 285.669 70.6147C285.223 71.0608 284.678 71.2839 284.033 71.2839H255.456C254.812 71.2839 254.258 71.0691 253.796 70.6395C253.333 70.1934 253.102 69.6481 253.102 69.0037Z" fill="black" fill-opacity="0.2"/>
<path d="M253.102 69.0037V38.1461C253.102 37.4687 253.333 36.8986 253.796 36.436C254.258 35.9733 254.812 35.742 255.456 35.742H260.116C260.76 35.742 261.305 35.9733 261.752 36.436C262.214 36.8986 262.446 37.4687 262.446 38.1461V64.2697H284.033C284.678 64.2697 285.223 64.501 285.669 64.9637C286.132 65.4263 286.363 65.9799 286.363 66.6243V68.9541C286.363 69.5985 286.132 70.152 285.669 70.6147C285.223 71.0608 284.678 71.2839 284.033 71.2839H255.456C254.812 71.2839 254.258 71.0691 253.796 70.6395C253.333 70.1934 253.102 69.6481 253.102 69.0037Z" fill="black" fill-opacity="0.2"/>
<path d="M253.102 69.0037V38.1461C253.102 37.4687 253.333 36.8986 253.796 36.436C254.258 35.9733 254.812 35.742 255.456 35.742H260.116C260.76 35.742 261.305 35.9733 261.752 36.436C262.214 36.8986 262.446 37.4687 262.446 38.1461V64.2697H284.033C284.678 64.2697 285.223 64.501 285.669 64.9637C286.132 65.4263 286.363 65.9799 286.363 66.6243V68.9541C286.363 69.5985 286.132 70.152 285.669 70.6147C285.223 71.0608 284.678 71.2839 284.033 71.2839H255.456C254.812 71.2839 254.258 71.0691 253.796 70.6395C253.333 70.1934 253.102 69.6481 253.102 69.0037Z" fill="black" fill-opacity="0.2"/>
<path d="M290.428 69.0037V38.1461C290.428 37.4687 290.659 36.8986 291.122 36.436C291.585 35.9733 292.138 35.742 292.783 35.742H297.442C298.087 35.742 298.632 35.9733 299.078 36.436C299.541 36.8986 299.772 37.4687 299.772 38.1461V64.2697H321.36C322.004 64.2697 322.55 64.501 322.996 64.9637C323.458 65.4263 323.69 65.9799 323.69 66.6243V68.9541C323.69 69.5985 323.458 70.152 322.996 70.6147C322.55 71.0608 322.004 71.2839 321.36 71.2839H292.783C292.138 71.2839 291.585 71.0691 291.122 70.6395C290.659 70.1934 290.428 69.6481 290.428 69.0037Z" fill="#0D1B2A"/>
<path d="M290.428 69.0037V38.1461C290.428 37.4687 290.659 36.8986 291.122 36.436C291.585 35.9733 292.138 35.742 292.783 35.742H297.442C298.087 35.742 298.632 35.9733 299.078 36.436C299.541 36.8986 299.772 37.4687 299.772 38.1461V64.2697H321.36C322.004 64.2697 322.55 64.501 322.996 64.9637C323.458 65.4263 323.69 65.9799 323.69 66.6243V68.9541C323.69 69.5985 323.458 70.152 322.996 70.6147C322.55 71.0608 322.004 71.2839 321.36 71.2839H292.783C292.138 71.2839 291.585 71.0691 291.122 70.6395C290.659 70.1934 290.428 69.6481 290.428 69.0037Z" fill="black" fill-opacity="0.2"/>
<path d="M290.428 69.0037V38.1461C290.428 37.4687 290.659 36.8986 291.122 36.436C291.585 35.9733 292.138 35.742 292.783 35.742H297.442C298.087 35.742 298.632 35.9733 299.078 36.436C299.541 36.8986 299.772 37.4687 299.772 38.1461V64.2697H321.36C322.004 64.2697 322.55 64.501 322.996 64.9637C323.458 65.4263 323.69 65.9799 323.69 66.6243V68.9541C323.69 69.5985 323.458 70.152 322.996 70.6147C322.55 71.0608 322.004 71.2839 321.36 71.2839H292.783C292.138 71.2839 291.585 71.0691 291.122 70.6395C290.659 70.1934 290.428 69.6481 290.428 69.0037Z" fill="black" fill-opacity="0.2"/>
<path d="M290.428 69.0037V38.1461C290.428 37.4687 290.659 36.8986 291.122 36.436C291.585 35.9733 292.138 35.742 292.783 35.742H297.442C298.087 35.742 298.632 35.9733 299.078 36.436C299.541 36.8986 299.772 37.4687 299.772 38.1461V64.2697H321.36C322.004 64.2697 322.55 64.501 322.996 64.9637C323.458 65.4263 323.69 65.9799 323.69 66.6243V68.9541C323.69 69.5985 323.458 70.152 322.996 70.6147C322.55 71.0608 322.004 71.2839 321.36 71.2839H292.783C292.138 71.2839 291.585 71.0691 291.122 70.6395C290.659 70.1934 290.428 69.6481 290.428 69.0037Z" fill="black" fill-opacity="0.2"/>
<path d="M290.428 69.0037V38.1461C290.428 37.4687 290.659 36.8986 291.122 36.436C291.585 35.9733 292.138 35.742 292.783 35.742H297.442C298.087 35.742 298.632 35.9733 299.078 36.436C299.541 36.8986 299.772 37.4687 299.772 38.1461V64.2697H321.36C322.004 64.2697 322.55 64.501 322.996 64.9637C323.458 65.4263 323.69 65.9799 323.69 66.6243V68.9541C323.69 69.5985 323.458 70.152 322.996 70.6147C322.55 71.0608 322.004 71.2839 321.36 71.2839H292.783C292.138 71.2839 291.585 71.0691 291.122 70.6395C290.659 70.1934 290.428 69.6481 290.428 69.0037Z" fill="black" fill-opacity="0.2"/>
<path d="M290.428 69.0037V38.1461C290.428 37.4687 290.659 36.8986 291.122 36.436C291.585 35.9733 292.138 35.742 292.783 35.742H297.442C298.087 35.742 298.632 35.9733 299.078 36.436C299.541 36.8986 299.772 37.4687 299.772 38.1461V64.2697H321.36C322.004 64.2697 322.55 64.501 322.996 64.9637C323.458 65.4263 323.69 65.9799 323.69 66.6243V68.9541C323.69 69.5985 323.458 70.152 322.996 70.6147C322.55 71.0608 322.004 71.2839 321.36 71.2839H292.783C292.138 71.2839 291.585 71.0691 291.122 70.6395C290.659 70.1934 290.428 69.6481 290.428 69.0037Z" fill="black" fill-opacity="0.2"/>
<path d="M47.629 61.5349C47.8085 61.6467 47.6961 61.9824 47.4559 62.0521L7.97709 73.4983C2.86107 74.9816 -0.807333 70.9773 0.692893 65.5473L1.20671 63.6875C2.8008 57.9177 7.74396 52.9933 13.1705 51.7692L25.2688 49.0402C26.4563 48.7723 27.5844 48.9327 28.4672 49.495L36.0784 54.3429L47.629 61.5349Z" fill="url(#paint0_linear_165_180)"/>
<path d="M47.1916 0.824183C52.7652 -1.75201 57.3127 2.13431 56.433 8.72213C55.827 13.2609 52.7619 17.7072 48.933 19.6021L20.2614 33.7908C15.7383 36.0291 11.9632 32.9322 12.6791 27.5705L13.6125 20.5798C13.9667 17.927 15.7897 15.3383 18.0341 14.3009L47.1916 0.824183Z" fill="url(#paint1_linear_165_180)"/>
<path d="M45.1331 59.2816C48.068 61.1251 51.541 59.5359 52.2481 56.0258L52.6285 54.1379C54.1049 46.8094 50.9262 38.8723 44.8918 34.8197L17.743 16.5871C15.9744 15.3993 13.8225 16.3379 13.3897 18.4858L10.5369 32.6465C10.0237 35.1939 11.1699 37.9484 13.2999 39.2862L45.1331 59.2816Z" fill="url(#paint2_linear_165_180)"/>
<path d="M48.4405 101.586C51.4265 103.326 55.0362 101.679 55.8384 98.2476C57.8197 89.7732 54.1213 80.5998 46.8383 76.1164L11.8996 54.6079C8.25032 52.3614 3.74255 54.1888 2.5905 58.3817L0.501425 65.9848C-0.55071 69.814 1.1363 74.0235 4.51107 75.9899L48.4405 101.586Z" fill="url(#paint3_linear_165_180)"/>
</g>
<defs>
<linearGradient id="paint0_linear_165_180" x1="28.7734" y1="-1.08929" x2="28.7734" y2="103.529" gradientUnits="userSpaceOnUse">
<stop stop-color="#0466C8"/>
<stop offset="1" stop-color="#023262"/>
</linearGradient>
<linearGradient id="paint1_linear_165_180" x1="28.7734" y1="-1.08929" x2="28.7734" y2="103.529" gradientUnits="userSpaceOnUse">
<stop stop-color="#0466C8"/>
<stop offset="1" stop-color="#023262"/>
</linearGradient>
<linearGradient id="paint2_linear_165_180" x1="28.7734" y1="-1.08929" x2="28.7734" y2="103.529" gradientUnits="userSpaceOnUse">
<stop stop-color="#0466C8"/>
<stop offset="1" stop-color="#023262"/>
</linearGradient>
<linearGradient id="paint3_linear_165_180" x1="28.7734" y1="-1.08929" x2="28.7734" y2="103.529" gradientUnits="userSpaceOnUse">
<stop stop-color="#0466C8"/>
<stop offset="1" stop-color="#023262"/>
</linearGradient>
<clipPath id="clip0_165_180">
<rect width="323.73" height="102.33" fill="white"/>
</clipPath>
</defs>
</svg>
